<?xml version="1.0" encoding="UTF-8"?>
<svg id="Layer_2" data-name="Layer 2" xmlns="http://www.w3.org/2000/svg" viewBox="0 0 541.24 89.64">
  <defs>
    <style>
      .cls-1 {
        isolation: isolate;
      }

      .cls-2 {
        fill: #1a1a1a;
      }
    </style>
  </defs>
  <g id="Layer_1-2" data-name="Layer 1">
    <g class="cls-1">
      <path class="cls-2" d="M0,45.72v-15.6h48v15.6H0ZM12.84,88.44V25.08c0-4.72,1.06-8.98,3.18-12.78,2.12-3.8,5.1-6.8,8.94-9,3.84-2.2,8.4-3.3,13.68-3.3,4,0,7.5.66,10.5,1.98s5.62,3.14,7.86,5.46l-11.52,11.52c-.8-.8-1.7-1.42-2.7-1.86-1-.44-2.18-.66-3.54-.66-2.48,0-4.44.72-5.88,2.16-1.44,1.44-2.16,3.4-2.16,5.88v63.96H12.84Z"/>
      <path class="cls-2" d="M55.56,88.44V30.12h18.36v58.32h-18.36ZM73.92,56.4l-7.68-6c1.52-6.8,4.08-12.08,7.68-15.84,3.6-3.76,8.6-5.64,15-5.64,2.8,0,5.26.42,7.38,1.26,2.12.84,3.98,2.14,5.58,3.9l-10.92,13.8c-.8-.88-1.8-1.56-3-2.04-1.2-.48-2.56-.72-4.08-.72-3.04,0-5.46.94-7.26,2.82-1.8,1.88-2.7,4.7-2.7,8.46Z"/>
      <path class="cls-2" d="M129.48,89.64c-5.36,0-10.14-1.32-14.34-3.96-4.2-2.64-7.52-6.24-9.96-10.8-2.44-4.56-3.66-9.76-3.66-15.6s1.22-11.04,3.66-15.6c2.44-4.56,5.76-8.16,9.96-10.8,4.2-2.64,8.98-3.96,14.34-3.96,3.92,0,7.46.76,10.62,2.28,3.16,1.52,5.74,3.62,7.74,6.3,2,2.68,3.12,5.74,3.36,9.18v25.2c-.24,3.44-1.34,6.5-3.3,9.18-1.96,2.68-4.54,4.78-7.74,6.3-3.2,1.52-6.76,2.28-10.68,2.28ZM133.2,73.08c3.92,0,7.08-1.3,9.48-3.9,2.4-2.6,3.6-5.9,3.6-9.9,0-2.72-.54-5.12-1.62-7.2-1.08-2.08-2.6-3.7-4.56-4.86-1.96-1.16-4.22-1.74-6.78-1.74s-4.82.58-6.78,1.74c-1.96,1.16-3.52,2.78-4.68,4.86-1.16,2.08-1.74,4.48-1.74,7.2s.56,5,1.68,7.08c1.12,2.08,2.68,3.72,4.68,4.92,2,1.2,4.24,1.8,6.72,1.8ZM145.56,88.44v-15.72l2.76-14.16-2.76-14.16v-14.28h18v58.32h-18Z"/>
      <path class="cls-2" d="M176.52,88.44V30.12h18.36v58.32h-18.36ZM215.04,88.44v-33.24c0-3.04-.94-5.5-2.82-7.38-1.88-1.88-4.26-2.82-7.14-2.82-2,0-3.76.42-5.28,1.26-1.52.84-2.72,2.04-3.6,3.6-.88,1.56-1.32,3.34-1.32,5.34l-7.08-3.48c0-4.56,1-8.56,3-12,2-3.44,4.78-6.1,8.34-7.98,3.56-1.88,7.58-2.82,12.06-2.82s8.14,1.02,11.46,3.06c3.32,2.04,5.94,4.74,7.86,8.1,1.92,3.36,2.88,7.04,2.88,11.04v37.32h-18.36Z"/>
      <path class="cls-2" d="M245.16,88.44V1.32h18.36v87.12h-18.36ZM282.48,88.44l-20.4-30.24,20.28-28.08h20.52l-24.48,31.56.6-7.56,25.08,34.32h-21.6Z"/>
    </g>
    <g class="cls-1">
      <path class="cls-2" d="M331.05,89.17c-5.69,0-10.42-1.01-14.2-3.03-3.78-2.02-5.68-4.66-5.68-7.92,0-1.54.56-2.98,1.67-4.32,1.11-1.34,2.48-2.02,4.09-2.02s2.77.36,3.72,1.07c.94.71,1.68,1.55,2.22,2.51.58,1,1.08,2.19,1.53,3.57.44,1.38.82,2.52,1.12,3.4.58.65,1.37,1.26,2.39,1.82,1.02.56,2.49.83,4.41.83,4.15,0,7.29-1.04,9.42-3.12,2.13-2.08,3.2-4.89,3.2-8.43,0-2.62-1-4.7-3-6.26-2-1.56-4.98-2.99-8.93-4.3-1.42-.46-3.09-1.16-5.01-2.11-1.92-.94-3.46-1.95-4.61-3.03-1.38-1.23-2.5-2.69-3.34-4.39-.85-1.69-1.27-3.69-1.27-6,0-4.93,2.2-9.19,6.6-12.79,4.4-3.6,9.8-5.4,16.22-5.4,1.5,0,3.11.08,4.84.23,1.73.15,3.63.58,5.7,1.27,1.8.62,3.34,1.53,4.61,2.74,1.27,1.21,1.9,2.78,1.9,4.7,0,1.58-.53,3.01-1.58,4.29-1.06,1.29-2.45,1.93-4.18,1.93-1.42,0-2.59-.31-3.51-.92-.92-.61-1.69-1.44-2.3-2.48-.61-1.04-1.11-2.15-1.5-3.34-.38-1.19-.81-2.36-1.27-3.51-.73-.31-1.38-.52-1.96-.63s-1.35-.17-2.3-.17c-3.77,0-6.62,1.01-8.56,3.03-1.94,2.02-2.91,4.42-2.91,7.19s.87,4.72,2.62,6.09c1.75,1.37,4.64,2.78,8.67,4.24,5.22,1.89,9.02,4.04,11.38,6.47s3.54,5.43,3.54,9c0,5.85-2.25,10.61-6.74,14.29s-10.16,5.51-17,5.51Z"/>
      <path class="cls-2" d="M392.82,81.16l-.86,3.69c-3.54,1.42-6.36,2.41-8.47,2.97-2.11.56-3.92.83-5.42.83-3.07,0-5.38-.8-6.91-2.39-1.54-1.6-2.3-3.57-2.3-5.91,0-.88.08-1.81.23-2.77.15-.96.4-2.17.75-3.63l6.09-24.51c.31-1.35.6-2.79.89-4.33.29-1.54.43-2.85.43-3.92,0-2.15-.36-3.58-1.07-4.3-.71-.71-2.16-1.07-4.34-1.07-.84,0-1.97.13-3.36.4-1.4.27-2.46.5-3.19.69l.86-3.69c2.99-1.34,5.68-2.34,8.06-3,2.38-.65,4.26-.98,5.64-.98,3.15,0,5.43.75,6.85,2.25,1.42,1.5,2.13,3.52,2.13,6.06,0,.69-.08,1.63-.23,2.83-.15,1.19-.38,2.38-.69,3.58l-6.12,24.51c-.38,1.5-.72,2.97-1,4.41-.29,1.44-.43,2.62-.43,3.55,0,2.19.49,3.69,1.46,4.5s2.56,1.21,4.74,1.21c.73,0,1.77-.1,3.13-.29,1.36-.19,2.4-.42,3.13-.69ZM396.91,7.47c0,2.19-.71,4.1-2.13,5.73-1.42,1.63-3.19,2.45-5.3,2.45-1.96,0-3.65-.78-5.07-2.33-1.42-1.55-2.13-3.33-2.13-5.33,0-2.11.71-3.96,2.13-5.53,1.42-1.57,3.11-2.36,5.07-2.36,2.19,0,3.98.74,5.36,2.22s2.07,3.2,2.07,5.16Z"/>
      <path class="cls-2" d="M413.62,88.65c-3.65,0-6.32-.74-8.01-2.22-1.69-1.48-2.54-3.6-2.54-6.37,0-.88.06-1.72.17-2.51s.27-1.68.46-2.68l8.98-38.49h-10.31l1.21-5.24h10.52l4.02-16.88h10.36l-3.9,16.88h16.04l-1.21,5.24h-15.91l-7.44,31.75c-.35,1.46-.63,2.87-.86,4.24s-.35,2.53-.35,3.49c0,2.11.53,3.66,1.58,4.64,1.06.98,2.97,1.47,5.73,1.47,1,0,2.4-.12,4.21-.37s3.21-.57,4.21-.95l-.98,4.21c-2.69,1.04-5.22,1.93-7.61,2.68-2.38.75-5.19,1.12-8.41,1.12Z"/>
      <path class="cls-2" d="M490.48,41.25c0,4.08-1.28,7.58-3.83,10.5-2.55,2.92-6.27,5.25-11.15,6.98-3.57,1.31-7.18,2.37-10.83,3.17-3.65.81-7.68,1.48-12.1,2.02,0,6.07,1.12,10.71,3.37,13.91,2.25,3.21,5.54,4.81,9.88,4.81,3.84,0,7.23-.96,10.17-2.88,2.94-1.92,5.83-4.78,8.67-8.58l3.28,2.42c-3.07,4.69-6.91,8.43-11.52,11.24s-9.39,4.21-14.35,4.21c-6.8,0-11.99-1.9-15.59-5.71-3.59-3.81-5.39-9.21-5.39-16.21,0-4.84.76-9.47,2.28-13.87,1.52-4.4,3.74-8.43,6.66-12.08,2.84-3.58,6.33-6.46,10.46-8.65s8.69-3.29,13.68-3.29c5.53,0,9.63,1.12,12.3,3.38s4,5.13,4,8.63ZM479.88,39.83c0-1.49-.21-2.67-.63-3.54-.42-.86-.96-1.5-1.61-1.93-.69-.46-1.42-.75-2.19-.86-.77-.12-1.56-.17-2.36-.17-4.61,0-8.86,2.53-12.76,7.59s-6.37,11.36-7.4,18.92c2.69-.38,5.72-.93,9.1-1.64,3.38-.71,6.18-1.64,8.41-2.79,3.19-1.65,5.56-3.77,7.12-6.35,1.56-2.59,2.33-5.66,2.33-9.23Z"/>
      <path class="cls-2" d="M513.64,89.17c-5.69,0-10.42-1.01-14.2-3.03-3.78-2.02-5.67-4.66-5.67-7.92,0-1.54.56-2.98,1.67-4.32,1.11-1.34,2.48-2.02,4.09-2.02s2.77.36,3.72,1.07,1.68,1.55,2.22,2.51c.58,1,1.08,2.19,1.53,3.57s.82,2.52,1.12,3.4c.58.65,1.37,1.26,2.39,1.82s2.49.83,4.41.83c4.15,0,7.29-1.04,9.42-3.12,2.13-2.08,3.2-4.89,3.2-8.43,0-2.62-1-4.7-3-6.26-2-1.56-4.98-2.99-8.93-4.3-1.42-.46-3.09-1.16-5.01-2.11-1.92-.94-3.46-1.95-4.61-3.03-1.38-1.23-2.5-2.69-3.34-4.39-.85-1.69-1.27-3.69-1.27-6,0-4.93,2.2-9.19,6.6-12.79,4.4-3.6,9.8-5.4,16.22-5.4,1.5,0,3.11.08,4.84.23,1.73.15,3.63.58,5.7,1.27,1.8.62,3.34,1.53,4.61,2.74,1.27,1.21,1.9,2.78,1.9,4.7,0,1.58-.53,3.01-1.58,4.29-1.06,1.29-2.45,1.93-4.18,1.93-1.42,0-2.59-.31-3.51-.92-.92-.61-1.69-1.44-2.3-2.48-.62-1.04-1.12-2.15-1.5-3.34-.38-1.19-.81-2.36-1.27-3.51-.73-.31-1.38-.52-1.96-.63s-1.35-.17-2.3-.17c-3.77,0-6.62,1.01-8.56,3.03-1.94,2.02-2.91,4.42-2.91,7.19s.87,4.72,2.62,6.09c1.75,1.37,4.64,2.78,8.67,4.24,5.22,1.89,9.02,4.04,11.38,6.47s3.54,5.43,3.54,9c0,5.85-2.25,10.61-6.74,14.29s-10.16,5.51-17,5.51Z"/>
    </g>
  </g>
</svg>
